<?xml version="1.0" standalone="no"?>
<!DOCTYPE svg PUBLIC "-//W3C//DTD SVG 20010904//EN"
 "http://www.w3.org/TR/2001/REC-SVG-20010904/DTD/svg10.dtd">
<svg version="1.0" xmlns="http://www.w3.org/2000/svg"
 width="796.000000pt" height="796.000000pt" viewBox="0 0 796.000000 796.000000"
 preserveAspectRatio="xMidYMid meet">
<metadata>
Created by potrace 1.14, written by Peter Selinger 2001-2017
</metadata>
<g transform="translate(0.000000,796.000000) scale(0.100000,-0.100000)"
fill="#000000" stroke="none">
<path d="M0 3980 l0 -3980 3003 0 c1682 0 3008 4 3016 9 8 5 10 14 6 22 -5 8
-5 11 0 7 12 -12 67 32 61 49 -3 8 -2 11 3 8 5 -3 12 -1 16 5 4 6 11 7 17 4 7
-5 8 -2 3 5 -4 8 1 18 14 27 12 8 21 22 21 30 0 8 4 12 10 9 5 -3 12 6 16 20
4 16 13 25 25 25 11 0 24 11 31 25 6 13 15 22 19 19 5 -3 6 1 3 9 -3 8 0 18 5
22 6 3 8 11 5 17 -4 7 -2 8 4 4 7 -4 12 -2 12 4 0 6 3 9 8 7 10 -7 32 19 24
29 -4 4 1 4 11 1 10 -4 16 -3 13 2 -7 11 44 71 61 71 8 0 11 4 8 10 -3 5 2 10
12 11 16 0 16 1 -2 8 -19 8 -19 8 3 15 12 4 22 12 22 17 0 6 -5 7 -12 3 -7 -4
-8 -3 -4 5 4 6 11 9 16 6 4 -3 14 3 21 12 12 14 12 16 0 8 -10 -6 -12 -4 -7 4
5 7 13 10 20 8 6 -3 21 2 31 10 19 14 19 15 -5 8 -24 -7 -24 -6 5 16 16 13 33
23 37 22 4 -2 5 4 2 12 -4 8 -1 15 5 15 12 0 51 36 51 46 0 3 -7 3 -16 0 -14
-5 -15 -4 -4 9 7 9 19 14 26 11 7 -3 15 2 18 10 3 8 16 14 28 15 13 0 17 3 11
6 -20 8 -15 22 12 35 21 9 23 14 12 26 -10 13 -9 14 1 8 7 -4 15 -1 18 9 6 13
8 14 15 3 6 -9 9 -6 10 12 1 14 1 28 0 33 0 4 4 7 10 7 7 0 20 10 30 22 11 11
22 18 25 15 9 -9 36 21 30 32 -3 5 4 11 15 14 13 4 19 11 16 19 -2 8 9 27 26
43 17 17 26 23 19 14 -9 -12 -9 -16 2 -16 9 0 13 8 10 21 -2 15 4 25 19 32 12
5 21 15 20 22 -2 6 3 9 11 6 9 -3 13 1 13 12 -1 11 7 20 23 24 21 6 23 8 8 15
-16 6 -16 9 6 26 13 10 29 19 35 19 6 0 11 7 11 15 0 8 7 15 16 15 8 0 13 4 9
9 -3 5 3 16 14 23 11 8 25 26 32 41 7 16 18 26 25 23 9 -3 11 1 7 11 -5 13 -2
15 13 9 15 -6 17 -5 7 5 -19 19 -16 34 4 18 14 -12 16 -12 8 0 -6 11 -4 13 10
8 14 -6 16 -3 12 13 -4 15 0 20 14 20 11 0 16 5 13 14 -3 8 3 16 16 19 11 3
19 9 18 14 -4 11 39 53 46 46 6 -6 10 13 7 31 -1 5 5 6 14 3 9 -4 15 -1 15 9
0 8 7 17 16 21 8 3 13 12 10 19 -3 8 -2 13 2 13 18 -3 35 2 29 8 -10 9 14 34
27 27 6 -3 3 1 -6 9 -16 13 -14 15 22 26 44 13 45 13 29 44 -9 18 -9 20 1 10
18 -17 51 2 43 24 -4 10 -2 14 4 10 6 -4 13 2 16 13 3 10 2 21 -2 23 -3 2 0 2
7 0 8 -1 23 4 35 12 12 8 18 15 14 15 -4 0 1 9 10 19 9 11 20 18 24 15 4 -2 6
7 5 20 -3 19 1 22 18 18 19 -5 19 -4 7 11 -12 15 -12 17 4 11 12 -5 16 -4 12
3 -8 13 21 46 33 38 5 -3 7 4 5 16 -3 15 0 19 10 15 8 -3 17 -1 20 5 4 5 10 7
15 4 4 -3 6 3 4 12 -3 12 6 25 26 38 25 17 55 56 32 41 -5 -3 -9 1 -9 9 0 10
6 11 25 4 22 -8 23 -8 12 6 -9 11 -9 15 -1 15 17 0 38 23 34 37 -2 6 1 15 8
19 8 4 9 3 5 -4 -4 -8 -2 -10 8 -6 9 3 12 12 9 22 -5 11 -2 14 10 9 16 -6 17
191 17 2893 l0 2900 -3980 0 -3980 0 0 -3980z m2586 2509 c555 -54 930 -294
1085 -694 63 -162 109 -417 109 -602 l0 -73 -609 0 -608 0 -5 228 c-4 211 -6
230 -27 271 -31 60 -76 99 -135 116 -126 38 -232 -3 -289 -109 -22 -41 -22
-46 -25 -621 l-2 -580 31 54 c77 133 238 246 414 292 103 27 311 36 426 19
210 -30 397 -120 548 -264 120 -115 185 -227 222 -384 45 -188 51 -275 56
-785 7 -660 -11 -958 -67 -1142 -71 -229 -258 -457 -472 -576 -233 -129 -469
-187 -800 -196 -571 -16 -970 107 -1234 379 -187 193 -293 425 -325 714 -8 77
-13 456 -16 1274 -5 1258 2 1556 38 1735 41 202 143 393 291 550 207 218 482
343 858 390 131 16 392 18 536 4z m4274 -469 l0 -390 -755 0 -755 0 0 -411 0
-412 73 69 c176 168 355 242 608 252 470 18 803 -161 940 -505 106 -265 136
-615 125 -1463 -9 -722 -35 -912 -153 -1130 -166 -307 -441 -486 -863 -562
-167 -29 -518 -37 -697 -14 -413 53 -734 202 -923 428 -73 87 -160 257 -194
379 -59 209 -86 471 -86 845 l0 254 609 0 608 0 6 -407 c9 -591 26 -676 142
-736 28 -14 60 -21 105 -21 81 -1 133 24 174 82 27 38 30 51 38 169 5 71 7
481 5 913 -3 672 -5 792 -18 835 -34 110 -75 155 -159 175 -133 32 -255 -46
-280 -179 -5 -30 -10 -96 -10 -147 l0 -94 -605 0 -605 0 0 63 c0 34 5 258 10
497 14 610 40 1818 40 1863 l0 37 1310 0 1310 0 0 -390z m1090 -3830 c0 -5 -5
-10 -11 -10 -5 0 -7 5 -4 10 3 6 8 10 11 10 2 0 4 -4 4 -10z"/>
<path d="M2235 4035 c-54 -19 -110 -81 -131 -146 -17 -49 -19 -111 -22 -704
-4 -797 2 -861 88 -939 64 -58 143 -70 220 -35 97 44 140 117 160 271 14 112
13 1202 -1 1304 -15 108 -43 177 -86 213 -59 49 -151 63 -228 36z"/>
</g>
</svg>
